<?xml version="1.0" encoding="UTF-8"?>
<svg width="120px" height="120px" viewBox="0 0 120 120" version="1.1" xmlns="http://www.w3.org/2000/svg" xmlns:xlink="http://www.w3.org/1999/xlink">
    <!-- Generator: Sketch 54.1 (76490) - https://sketchapp.com -->
    <title>dribble</title>
    <desc>Created with Sketch.</desc>
    <g id="dribble" stroke="none" stroke-width="1" fill="none" fill-rule="evenodd">
        <g fill="#FFFFFF" id="Shape">
            <path d="M60,0 C26.8764,0 0,26.8764 0,60 C0,93.1236 26.8764,120 60,120 C93.05856,120 120,93.1236 120,60 C120,26.8764 93.05856,0 60,0 Z M99.6312,27.65724 C106.78956,36.3774 111.0846,47.50548 111.2148,59.54448 C109.5228,59.21904 92.60304,55.77012 75.5532,57.91752 C75.16272,57.07164 74.83728,56.16048 74.44692,55.24944 C73.40568,52.7766 72.23424,50.2386 71.06292,47.8308 C89.93496,40.15188 98.52492,29.08896 99.6312,27.65724 Z M60,8.850324 C73.0152,8.850324 84.92412,13.731 93.9696,21.73536 C93.05856,23.03688 85.31448,33.384 67.09332,40.21692 C58.69848,24.79392 49.3926,12.1692 47.961,10.21692 C51.8004,9.305856 55.83516,8.850324 60,8.850324 Z M38.1996,13.66596 C39.56616,15.48804 48.6768,28.17792 57.20172,43.27548 C33.2538,49.65288 12.10416,49.5228 9.826464,49.5229998 C13.14528,33.64428 23.88288,20.43384 38.1996,13.66596 Z M8.720172,60.06504 C8.720172,59.54448 8.720172,59.02392 8.720172,58.50324 C10.932756,58.56828 35.7918,58.89372 61.36656,51.2148 C62.86332,54.07812 64.22988,57.00648 65.5314,59.93496 C64.88064,60.1302 64.16484,60.32544 63.51408,60.52056 C37.09332,69.0456 23.03688,92.34276 21.86556,94.29504 C13.731,85.24944 8.720172,73.21044 8.720172,60.06504 Z M60,111.27984 C48.15624,111.27984 37.2234,107.24508 28.56828,100.4772 C29.47944,98.59008 39.8916,78.5466 68.7852,68.45988 C68.9154,68.39484 68.98044,68.39484 69.11064,68.32968 C76.33404,87.00648 79.26252,102.68976 80.04336,107.18004 C73.8612,109.84812 67.09332,111.27984 60,111.27984 Z M88.5684,102.49464 C88.04772,99.37092 85.3146,84.40344 78.61176,65.98704 C94.68552,63.44904 108.74184,67.61388 110.49888,68.1996 C108.28632,82.45116 100.08672,94.75056 88.5684,102.49464 Z"></path>
        </g>
    </g>
</svg>