<?xml version="1.0" encoding="UTF-8"?>
<svg width="120px" height="120px" viewBox="0 0 120 120" version="1.1" xmlns="http://www.w3.org/2000/svg" xmlns:xlink="http://www.w3.org/1999/xlink">
    <!-- Generator: Sketch 54.1 (76490) - https://sketchapp.com -->
    <title>instagram</title>
    <desc>Created with Sketch.</desc>
    <g id="instagram" stroke="none" stroke-width="1" fill="none" fill-rule="evenodd">
        <g fill="#FFFFFF" fill-rule="nonzero">
            <path d="M59.9761905,10.811669 C76,10.811669 77.8809524,10.8831117 84.2142857,11.1688827 C90.0714286,11.4308395 93.2380952,12.4072237 95.3571429,13.2407224 C98.1666667,14.3361778 100.166667,15.6221473 102.261905,17.7178012 C104.357143,19.8134551 105.666667,21.813852 106.738095,24.6239333 C107.547619,26.7434015 108.547619,29.9106966 108.809524,35.7690018 C109.095238,42.103592 109.166667,43.9849176 109.166667,60.0119071 C109.166667,76.0388966 109.095238,77.9202223 108.809524,84.2548125 C108.547619,90.1131177 107.571429,93.2804128 106.738095,95.3998809 C105.642857,98.2099623 104.357143,100.210359 102.261905,102.306013 C100.166667,104.401667 98.1666667,105.711451 95.3571429,106.783092 C93.2380952,107.592776 90.0714286,108.592975 84.2142857,108.854932 C77.8809524,109.140703 76,109.212145 59.9761905,109.212145 C43.952381,109.212145 42.0714286,109.140703 35.7380952,108.854932 C29.8809524,108.592975 26.7142857,107.616591 24.5952381,106.783092 C21.7857143,105.687636 19.7857143,104.401667 17.6904762,102.306013 C15.5952381,100.210359 14.2857143,98.2099623 13.2142857,95.3998809 C12.4047619,93.2804128 11.4047619,90.1131177 11.1428571,84.2548125 C10.8571429,77.9202223 10.7857143,76.0388966 10.7857143,60.0119071 C10.7857143,43.9849176 10.8571429,42.103592 11.1428571,35.7690018 C11.4047619,29.9106966 12.3809524,26.7434015 13.2142857,24.6239333 C14.3095238,21.813852 15.5952381,19.8134551 17.6904762,17.7178012 C19.7857143,15.6221473 21.7857143,14.3123636 24.5952381,13.2407224 C26.7142857,12.4310379 29.8809524,11.4308395 35.7380952,11.1688827 C42.0714286,10.8592975 43.952381,10.811669 59.9761905,10.811669 L59.9761905,10.811669 Z M59.9761905,0 C43.6904762,0 41.6428571,0.0714427466 35.2380952,0.357213733 C28.8571429,0.642984719 24.5,1.66699742 20.6904762,3.14348085 C16.7380952,4.66759278 13.4047619,6.73943243 10.0714286,10.0734273 C6.73809524,13.4074221 4.69047619,16.7652312 3.14285714,20.6945823 C1.66666667,24.5048621 0.642857143,28.8628696 0.357142857,35.2689026 C0.0714285714,41.6511213 0,43.6991467 0,59.9880929 C0,76.2770391 0.0714285714,78.3250645 0.357142857,84.7310974 C0.642857143,91.1133161 1.66666667,95.4713237 3.14285714,99.3054177 C4.66666667,103.258583 6.73809524,106.592578 10.0714286,109.926573 C13.4047619,113.260568 16.7619048,115.308593 20.6904762,116.856519 C24.5,118.333003 28.8571429,119.357015 35.2619048,119.642786 C41.6666667,119.928557 43.6904762,120 60,120 C76.3095238,120 78.3333333,119.928557 84.7380952,119.642786 C91.1190476,119.357015 95.4761905,118.333003 99.3095238,116.856519 C103.261905,115.332407 106.595238,113.260568 109.928571,109.926573 C113.261905,106.592578 115.309524,103.234769 116.857143,99.3054177 C118.333333,95.4951379 119.357143,91.1371304 119.642857,84.7310974 C119.928571,78.3250645 120,76.3008533 120,59.9880929 C120,43.6753324 119.928571,41.6511213 119.642857,35.2450883 C119.357143,28.8628696 118.333333,24.5048621 116.857143,20.670768 C115.333333,16.7176027 113.261905,13.3836079 109.928571,10.049613 C106.595238,6.71561818 103.238095,4.66759278 99.3095238,3.1196666 C95.5,1.64318317 91.1428571,0.61917047 84.7380952,0.333399484 C78.3095238,0.0714427466 76.2619048,0 59.9761905,0 L59.9761905,0 Z" id="Shape"></path>
            <path d="M60.5,30 C43.6707883,30 30,43.6472179 30,60.5 C30,77.3527821 43.6707883,91 60.5,91 C77.3292117,91 91,77.3292117 91,60.5 C91,43.6707883 77.3292117,30 60.5,30 Z M60.5,80.2990726 C49.5633694,80.2990726 40.7009274,71.4366306 40.7009274,60.5 C40.7009274,49.5633694 49.5633694,40.7009274 60.5,40.7009274 C71.4366306,40.7009274 80.2990726,49.5633694 80.2990726,60.5 C80.2990726,71.4366306 71.4366306,80.2990726 60.5,80.2990726 Z" id="Shape"></path>
            <circle id="Oval" cx="91.5" cy="27.5" r="7.5"></circle>
        </g>
    </g>
</svg>