<?xml version="1.0" encoding="UTF-8"?>
<svg width="120px" height="120px" viewBox="0 0 120 120" version="1.1" xmlns="http://www.w3.org/2000/svg" xmlns:xlink="http://www.w3.org/1999/xlink">
    <!-- Generator: Sketch 54.1 (76490) - https://sketchapp.com -->
    <title>linkdin</title>
    <desc>Created with Sketch.</desc>
    <g id="linkdin" stroke="none" stroke-width="1" fill="none" fill-rule="evenodd">
        <g fill="#FFFFFF" fill-rule="nonzero" id="Shape">
            <path d="M111.166667,0 L8.83333333,0 C4,0 0,4 0,8.83333333 L0,111.166667 C0,116 4,120 8.83333333,120 L111.166667,120 C116,120 120,116 120,111.166667 L120,8.83333333 C120,3.83333333 116,0 111.166667,0 Z M35.6666667,102.166667 L17.6666667,102.166667 L17.6666667,44.8333333 L35.6666667,44.8333333 L35.6666667,102.166667 L35.6666667,102.166667 Z M26.6666667,36.8333333 C21,36.8333333 16.3333333,32.5 16.3333333,26.5 C16.3333333,20.5 21,16.1666667 26.6666667,16.1666667 C32.3333333,16.1666667 37,20.5 37,26.5 C37,32.5 32.5,36.8333333 26.6666667,36.8333333 Z M102.166667,102.166667 L84.1666667,102.166667 L84.1666667,70.8333333 C84.1666667,61.6666667 80.1666667,58.6666667 75.1666667,58.6666667 C69.8333333,58.6666667 64.5,62.6666667 64.5,71 L64.5,102 L46.5,102 L46.5,44.8333333 L63.8333333,44.8333333 L63.8333333,52.8333333 L64.1666667,52.8333333 C65.8333333,49.3333333 72,43.3333333 81.3333333,43.3333333 C91.3333333,43.3333333 102.333333,49.3333333 102.333333,66.8333333 L102.333333,102.166667 L102.166667,102.166667 Z"></path>
        </g>
    </g>
</svg>