<?xml version="1.0" encoding="UTF-8"?>
<svg width="120px" height="120px" viewBox="0 0 120 120" version="1.1" xmlns="http://www.w3.org/2000/svg" xmlns:xlink="http://www.w3.org/1999/xlink">
    <!-- Generator: Sketch 54.1 (76490) - https://sketchapp.com -->
    <title>twitter</title>
    <desc>Created with Sketch.</desc>
    <g id="twitter" stroke="none" stroke-width="1" fill="none" fill-rule="evenodd">
        <path d="M37.7376,112 C83.0208,112 107.7888,74.678293 107.7888,42.3130768 C107.7888,41.2530181 107.7888,40.1977344 107.7168,39.1472257 C112.535191,35.6801216 116.694506,31.387211 120,26.4694965 C115.506619,28.4501912 110.739981,29.7491302 105.8592,30.3229532 C110.998771,27.2620673 114.845393,22.4478246 116.6832,16.7761667 C111.850356,19.6290393 106.563101,21.6396016 101.0496,22.7210906 C93.4179973,14.6483819 81.2914529,12.6725581 71.4698365,17.9015476 C61.6482201,23.1305372 56.57412,34.2639159 59.0928,45.0587244 C39.2970995,44.0714828 20.8534837,34.7700584 8.352,19.4692889 C1.81738923,30.6602845 5.15514184,44.9768777 15.9744,52.1639828 C12.0563578,52.0484629 8.22374098,50.9970261 4.8,49.0984076 C4.8,49.1986834 4.8,49.3037343 4.8,49.4087852 C4.80320704,61.0674875 13.0644071,71.109119 24.552,73.4176826 C20.9273741,74.4010545 17.1243868,74.5448034 13.4352,73.8378861 C16.6605501,83.8149622 25.9035579,90.6497673 36.4368,90.846576 C27.7187282,97.6626196 16.9490857,101.362777 5.8608,101.351662 C3.90193713,101.347921 1.94497951,101.229935 0,100.99831 C11.2590526,108.186064 24.3595843,111.998648 37.7376,111.9809" id="Path" fill="#FFFFFF" fill-rule="nonzero"></path>
    </g>
</svg>