<?xml version="1.0" encoding="UTF-8"?>
<svg viewBox="0 0 300 300" version="1.1" xmlns="http://www.w3.org/2000/svg" xmlns:xlink="http://www.w3.org/1999/xlink">
    <path d="M148.890803,194.453708 L156.601328,204.727775 L148.893261,215 L141.182736,204.725932 L148.890803,194.453708 Z M149.526379,116.033334 C169.341065,116.033334 185.404042,131.534025 185.404042,150.655095 C185.404042,169.776165 169.341065,185.276855 149.526379,185.276855 C129.711693,185.276855 113.648716,169.776165 113.648716,150.655095 C113.648716,131.534025 129.711693,116.033334 149.526379,116.033334 Z M199.683577,171.203059 L204.725551,183.014553 L191.972685,184.55503 L186.930711,172.743535 L199.683577,171.203059 Z M98.3192477,170.825997 L111.069289,172.365267 L106.026948,184.179811 L93.2769065,182.640542 L98.3192477,170.825997 Z M105.759911,116.976205 L110.801885,128.787699 L98.0490193,130.328176 L93.0070453,118.516682 L105.759911,116.976205 Z M192.242914,116.599144 L204.992955,118.138413 L199.950613,129.952958 L187.200572,128.413688 L192.242914,116.599144 Z M148.890803,86 L156.601328,96.2740678 L148.893261,106.546292 L141.182736,96.2722247 L148.890803,86 Z" fill="#000000"></path>
</svg>
