<?xml version="1.0" encoding="UTF-8"?>
<svg width="114px" height="120px" viewBox="0 0 114 120" version="1.1" xmlns="http://www.w3.org/2000/svg" xmlns:xlink="http://www.w3.org/1999/xlink">
    <!-- Generator: Sketch 54.1 (76490) - https://sketchapp.com -->
    <title>Fern - Logo Stamp_2018</title>
    <desc>Created with Sketch.</desc>
    <g id="Under-Construction-Page" stroke="none" stroke-width="1" fill="none" fill-rule="evenodd">
        <g id="fernlogo" fill="#FFFFFF" fill-rule="nonzero">
            <g id="Fern---Logo-Stamp_2018">
                <rect id="XMLID_236_" x="0" y="69" width="16" height="51"></rect>
                <circle id="XMLID_235_" cx="37" cy="76" r="8"></circle>
                <rect id="XMLID_234_" x="59" y="69" width="16" height="51"></rect>
                <path d="M111.202468,73.0465116 C107.497632,69.0697674 105.000894,69 89.9399304,69 C81,69 81,69 81,69 C87.6848128,69.4883721 93.8058463,72.627907 93.8058463,89.0930233 L93.7253064,120 L113.940825,120 L113.940825,85.4651163 C114.021365,85.4651163 114.424064,76.4651163 111.202468,73.0465116 Z" id="XMLID_233_"></path>
                <path d="M106.392261,28.3568531 C108.106832,35.6680862 105.226352,43.2526364 98.7109807,48.513991 C89.7952091,55.6202363 77.1073802,54.5952971 70.3862601,46.2591248 L99.9454721,22.753852 L106.529427,17.4924973 C103.237449,12.7094477 98.2994835,8.8830079 92.1956091,7.10644659 C78.4104545,3.00668971 64.0080543,10.6595692 60.0302485,24.1204376 C56.0524427,37.581306 63.9394714,51.7937965 77.724626,55.8935534 C91.5097805,59.9933103 105.912181,52.3404308 109.889987,38.8795624 C111.261644,34.164842 111.398809,29.8600972 110.095735,25.418694 L106.392261,28.3568531 Z M71.0720887,14.3493504 C80.0564431,7.24310515 92.9500205,8.54136149 99.9454721,17.2875095 L67.4371972,42.9793193 C60.5103285,34.3015005 62.1563171,21.4555957 71.0720887,14.3493504 Z" id="XMLID_230_"></path>
                <path d="M16,0 L14.7924528,0 C6.56603774,0 0,6.57804878 0,14.7439024 L0,62 L16,62 L16,0 Z" id="XMLID_229_"></path>
                <circle id="XMLID_228_" cx="37" cy="8" r="8"></circle>
                <rect id="XMLID_227_" x="0" y="33" width="27" height="3"></rect>
            </g>
        </g>
    </g>
</svg>