<?xml version="1.0" encoding="UTF-8"?>
<svg viewBox="0 0 108 115" version="1.1" xmlns="http://www.w3.org/2000/svg" xmlns:xlink="http://www.w3.org/1999/xlink">
    <path fill="#000000" d="M14,65 L14,115 L0,115 L0,65 L14,65 Z M69,65 L69,115 L55,115 L55,65 L69,65 Z M89.6913484,65.0005176 C100.795695,65.0109277 102.796466,65.2183521 105.71111,68.9671683 C108.346962,72.3187415 108.01748,81.1422709 107.951584,81.1422709 L107.951584,81.1422709 L107.951584,115 L91.4116143,115 L91.4775106,84.6990424 C91.4775106,68.5567715 86.4693923,65.4787962 81,65 L81,65 Z M34,65 C38.9705627,65 43,69.0294373 43,74 C43,78.9705627 38.9705627,83 34,83 C29.0294373,83 25,78.9705627 25,74 C25,69.0294373 29.0294373,65 34,65 Z M14,1 L14,29 L26,29 L26,32 L14,32 L14,58 L0,58 L0,14.554878 C0,7.04756098 5.74528302,1 12.9433962,1 L12.9433962,1 L14,1 Z M55.010436,24.1204376 C58.9117455,10.6595692 73.0371766,3.00668971 86.557232,7.10644659 C92.5437242,8.8830079 97.3867291,12.7094477 100.615399,17.4924973 L100.615399,17.4924973 L94.1580592,22.753852 L65.1672936,46.2591248 C71.7591614,54.5952971 84.2029935,55.6202363 92.947308,48.513991 C99.3373839,43.2526364 102.16247,35.6680862 100.480871,28.3568531 L100.480871,28.3568531 L104.113125,25.418694 C105.39114,29.8600972 105.256612,34.164842 103.911333,38.8795624 C100.010023,52.3404308 85.8845924,59.9933103 72.364537,55.8935534 C58.8444816,51.7937965 51.1091265,37.581306 55.010436,24.1204376 Z M94.1580592,17.2875095 C87.2971355,8.54136149 74.6515115,7.24310515 65.8399331,14.3493504 C57.0956187,21.4555957 55.4812837,34.3015005 62.2749434,42.9793193 L62.2749434,42.9793193 Z M32,0 C35.8659932,0 39,3.13400675 39,7 C39,10.8659932 35.8659932,14 32,14 C28.1340068,14 25,10.8659932 25,7 C25,3.13400675 28.1340068,0 32,0 Z"></path>
</svg>
