<?xml version="1.0" encoding="UTF-8"?>
<svg viewBox="0 0 300 300" version="1.1" xmlns="http://www.w3.org/2000/svg" xmlns:xlink="http://www.w3.org/1999/xlink">
    <path d="M222,172 C222.552285,172 223,172.447715 223,173 L223,188 C223,188.552285 222.552285,189 222,189 L81,189 C80.4477153,189 80,188.552285 80,188 L80,173 C80,172.447715 80.4477153,172 81,172 L222,172 Z M222,142 C222.552285,142 223,142.447715 223,143 L223,158 C223,158.552285 222.552285,159 222,159 L81,159 C80.4477153,159 80,158.552285 80,158 L80,143 C80,142.447715 80.4477153,142 81,142 L222,142 Z M222,112 C222.552285,112 223,112.447715 223,113 L223,128 C223,128.552285 222.552285,129 222,129 L81,129 C80.4477153,129 80,128.552285 80,128 L80,113 C80,112.447715 80.4477153,112 81,112 L222,112 Z" fill="#000000"></path>
</svg>
