<?xml version="1.0" encoding="UTF-8"?>
<svg viewBox="0 0 300 300" version="1.1" xmlns="http://www.w3.org/2000/svg" xmlns:xlink="http://www.w3.org/1999/xlink">
    <path d="M150,53 C203.571621,53 247,96.4283793 247,150 C247,203.571621 203.571621,247 150,247 C96.4283793,247 53,203.571621 53,150 C53,96.4283793 96.4283793,53 150,53 Z M150,67 C104.160366,67 67,104.160366 67,150 C67,195.839634 104.160366,233 150,233 C195.839634,233 233,195.839634 233,150 C233,104.160366 195.839634,67 150,67 Z M202,124 L150,193 L98,124 L202,124 Z" fill="#000000"></path>
</svg>
