<?xml version="1.0" encoding="UTF-8"?>
<svg viewBox="0 0 192 105" version="1.1" xmlns="http://www.w3.org/2000/svg" xmlns:xlink="http://www.w3.org/1999/xlink">
    <!-- Generator: Sketch 54.1 (76490) - https://sketchapp.com -->
    <title>Group 2</title>
    <desc>Created with Sketch.</desc>
    <g id="Under-Construction-Page" stroke="none" stroke-width="1" fill="none" fill-rule="evenodd">
        <g id="1" transform="translate(-546.000000, -410.000000)">
            <g id="Group-2" transform="translate(546.000000, 410.000000)">
                <g id="Wiggle-2" transform="translate(0.000000, 8.000000)" fill="#FFFFFF">
                    <path d="M69.5244573,-42.9999747 L139,-43 C139.552285,-43.0000002 140,-42.5522851 140,-42.0000004 C140,-42.0000002 140,-42.0000001 140,-42 L140,139 C140,139.552285 139.552285,140 139,140 C139,140 139,140 139,140 L49.7151637,139.999977 C49.1628675,139.999977 48.7151432,139.552252 48.7151435,138.999956 C48.7151436,138.787268 48.7829549,138.580119 48.9087262,138.408603 C55.433487,129.510686 55.0093173,117.207809 47.6362171,101.499972 C35.9014746,76.4999823 54.0713984,80.4999806 47.6362171,52.4999926 C41.2010357,24.5000045 65.4276009,24.5000045 47.6362171,-1.49998449 C47.6362171,-1.49998449 47.6362171,-1.49998449 47.6362171,-1.49998449 L47.6362171,-1.49998449 C39.3642147,-13.588531 42.458135,-30.0940171 54.5466815,-38.3660195 C58.958209,-41.3847584 64.1789583,-43.0000137 69.5244573,-43.0000156 Z" id="Rectangle" transform="translate(91.500000, 48.500000) rotate(-90.000000) translate(-91.500000, -48.500000) "></path>
                </g>
                <g id="Wiggle" transform="translate(9.000000, 0.000000)" fill="#A7383A">
                    <path d="M69.5244573,-42.9999747 L139,-43 C139.552285,-43.0000002 140,-42.5522851 140,-42.0000004 C140,-42.0000002 140,-42.0000001 140,-42 L140,139 C140,139.552285 139.552285,140 139,140 C139,140 139,140 139,140 L49.7151637,139.999977 C49.1628675,139.999977 48.7151432,139.552252 48.7151435,138.999956 C48.7151436,138.787268 48.7829549,138.580119 48.9087262,138.408603 C55.433487,129.510686 55.0093173,117.207809 47.6362171,101.499972 C35.9014746,76.4999823 54.0713984,80.4999806 47.6362171,52.4999926 C41.2010357,24.5000045 65.4276009,24.5000045 47.6362171,-1.49998449 C47.6362171,-1.49998449 47.6362171,-1.49998449 47.6362171,-1.49998449 L47.6362171,-1.49998449 C39.3642147,-13.588531 42.458135,-30.0940171 54.5466815,-38.3660195 C58.958209,-41.3847584 64.1789583,-43.0000137 69.5244573,-43.0000156 Z" id="Rectangle" transform="translate(91.500000, 48.500000) rotate(-90.000000) translate(-91.500000, -48.500000) "></path>
                </g>
                <text id="Under-Renovation" font-family="FranklinGothicStd-Roman, Franklin Gothic Std" font-size="20" font-weight="500" letter-spacing="0.0642000005" fill="#FFFFFF">
                    <tspan x="20" y="44">Under</tspan>
                    <tspan x="20" y="64">Renovation</tspan>
                </text>
            </g>
        </g>
    </g>
</svg>
