<?xml version="1.0" encoding="UTF-8"?>
<svg width="1284px" height="814px" viewBox="0 0 1284 814" version="1.1" xmlns="http://www.w3.org/2000/svg" xmlns:xlink="http://www.w3.org/1999/xlink">
    <!-- Generator: Sketch 54.1 (76490) - https://sketchapp.com -->
    <title>Big wiggles</title>
    <desc>Created with Sketch.</desc>
    <g id="Under-Construction-Page" stroke="none" stroke-width="1" fill="none" fill-rule="evenodd">
        <g id="1" transform="translate(0.000000, -26.000000)" fill="#FFFFFF">
            <g id="Big-wiggles" transform="translate(-80.000000, 22.000000)">
                <g id="Group" transform="translate(1190.025418, 69.652165)">
                    <path d="M239.010252,111.326148 C209.705738,129.593579 188.393215,66.9364772 171.634956,117.976811 C154.876697,169.017145 89.6552379,173.410408 118.995236,103.496445 C148.335234,33.5824815 212.584376,25.4324373 231.344935,35.5752635 C250.105495,45.7180896 268.314766,93.0587178 239.010252,111.326148 Z" id="Path" transform="translate(182.960104, 94.086803) rotate(-123.000000) translate(-182.960104, -94.086803) "></path>
                    <path d="M33.7491862,343.77201 C81.28376,312.981349 159.344784,335.171656 193.275436,293.534988 C227.206087,251.898321 289.675207,255.758355 253.791061,324.304674 C217.906915,392.850992 104.588345,337.866494 75.2850425,379.889047 C45.9817403,421.9116 -13.7853876,374.562671 33.7491862,343.77201 Z" id="Path" transform="translate(140.280695, 331.532757) scale(-1, 1) rotate(-201.000000) translate(-140.280695, -331.532757) "></path>
                    <path d="M134.321148,580.408951 C104.645681,603.550814 73.8365039,575.087747 73.8365039,565.752437 C73.8365039,556.417128 86.1976018,524.625412 103.092269,528.607675 C119.986936,532.589939 114.782641,543.303405 114.782641,552.638715 C114.782641,561.974024 163.996615,557.267087 134.321148,580.408951 Z" id="Path" transform="translate(108.836504, 558.764412) rotate(130.000000) translate(-108.836504, -558.764412) "></path>
                    <path d="M169.481733,731.347835 C157.154241,731.347835 153.974582,726.40946 153.974582,717.201533 C153.974582,707.993606 153.974582,693.064607 170.891474,696.992531 C187.808365,700.920455 194.974582,700.920455 194.974582,710.128382 C194.974582,719.336309 181.809224,731.347835 169.481733,731.347835 Z" id="Path"></path>
                </g>
                <path d="M675.774141,105.341245 C723.31011,74.5500189 801.371841,96.7382878 835.303917,55.1015164 C869.235992,13.464745 931.705981,17.3233603 895.819795,85.8694153 C859.933609,154.41547 746.614508,99.4342771 717.309844,141.456827 C688.00518,183.479377 628.238172,136.132472 675.774141,105.341245 Z" id="Path" transform="translate(782.307581, 93.099778) rotate(-14.000000) translate(-782.307581, -93.099778) "></path>
                <path d="M211.902131,404.157221 C244.03047,383.301914 296.790387,398.330323 319.724204,370.129184 C342.658022,341.928045 384.879881,344.541537 360.62533,390.968691 C336.37078,437.395846 259.781313,400.156353 239.975044,428.618785 C220.168776,457.081217 179.773792,425.012528 211.902131,404.157221 Z" id="Path" transform="translate(283.905343, 395.865912) rotate(48.000000) translate(-283.905343, -395.865912) "></path>
                <path d="M475.569145,674.671571 C523.108018,643.873134 601.164716,666.051468 635.101513,624.409035 C669.038311,582.766602 731.506144,586.616902 695.611661,655.169587 C659.717179,723.722273 546.408453,668.754905 517.098894,710.782504 C487.789335,752.810102 428.030272,705.470008 475.569145,674.671571 Z" id="Path" transform="translate(582.101695, 662.414927) scale(-1, 1) rotate(-155.000000) translate(-582.101695, -662.414927) "></path>
                <path d="M127.59078,567.223103 C98.2670249,585.463298 76.9329376,522.887494 60.1677215,573.858208 C43.4025055,624.828923 -21.8653928,629.209849 7.4887236,559.391883 C36.84284,489.573918 101.137348,481.441117 119.912403,491.572306 C138.687457,501.703495 156.914535,548.982908 127.59078,567.223103 Z" id="Path"></path>
                <path d="M1114.03567,783.978314 C1084.73116,802.245744 1063.41863,739.588642 1046.66037,790.628976 C1029.90211,841.66931 964.680656,846.062573 994.020654,776.14861 C1023.36065,706.234647 1087.60979,698.084603 1106.37035,708.227429 C1125.13091,718.370255 1143.34018,765.710883 1114.03567,783.978314 Z" id="Path" transform="translate(1057.985522, 766.738969) rotate(-123.000000) translate(-1057.985522, -766.738969) "></path>
                <path d="M290.03567,188.978314 C260.731156,207.245744 239.418633,144.588642 222.660374,195.628976 C205.902115,246.66931 140.680656,251.062573 170.020654,181.14861 C199.360652,111.234647 263.609794,103.084603 282.370353,113.227429 C301.130913,123.370255 319.340184,170.710883 290.03567,188.978314 Z" id="Path" transform="translate(233.985522, 171.738969) rotate(-123.000000) translate(-233.985522, -171.738969) "></path>
                <path d="M1052.50715,154 C1040.17966,154 1037,149.061626 1037,139.853698 C1037,130.645771 1037,115.716772 1053.91689,119.644696 C1070.83378,123.572621 1078,123.572621 1078,132.780548 C1078,141.988475 1064.83464,154 1052.50715,154 Z" id="Path"></path>
                <path d="M508.507151,142 C496.179659,142 493,137.061626 493,127.853698 C493,118.645771 493,103.716772 509.916892,107.644696 C526.833783,111.572621 534,111.572621 534,120.780548 C534,129.988475 520.834642,142 508.507151,142 Z" id="Path"></path>
                <path d="M228.507151,774 C216.179659,774 213,769.061626 213,759.853698 C213,750.645771 213,735.716772 229.916892,739.644696 C246.833783,743.572621 254,743.572621 254,752.780548 C254,761.988475 240.834642,774 228.507151,774 Z" id="Path"></path>
            </g>
        </g>
    </g>
</svg>