<?xml version="1.0" encoding="UTF-8"?>
<svg width="1284px" height="746px" viewBox="0 0 1284 746" version="1.1" xmlns="http://www.w3.org/2000/svg" xmlns:xlink="http://www.w3.org/1999/xlink">
    <!-- Generator: Sketch 54.1 (76490) - https://sketchapp.com -->
    <title>Big wiggles</title>
    <desc>Created with Sketch.</desc>
    <g id="Under-Construction-Page" stroke="none" stroke-width="1" fill="none" fill-rule="evenodd">
        <g id="3" transform="translate(0.000000, -94.000000)" fill="#FFFFFF">
            <g id="Big-wiggles" transform="translate(673.500000, 478.000000) rotate(-180.000000) translate(-673.500000, -478.000000) translate(-89.000000, 56.000000)">
                <g id="Group" transform="translate(0.025418, 1.652165)">
                    <path d="M195.03567,348.978314 C165.731156,367.245744 144.418633,304.588642 127.660374,355.628976 C110.902115,406.66931 45.6806558,411.062573 75.0206538,341.14861 C104.360652,271.234647 168.609794,263.084603 187.370353,273.227429 C206.130913,283.370255 224.340184,330.710883 195.03567,348.978314 Z" id="Path" transform="translate(138.985522, 331.738969) rotate(-123.000000) translate(-138.985522, -331.738969) "></path>
                    <path d="M32.7746041,117.424176 C80.3091779,86.6335145 158.370202,108.823821 192.300854,67.1871536 C226.231505,25.5504861 288.700625,29.4105201 252.816479,97.9568389 C216.932333,166.503158 103.613763,111.518659 74.3104604,153.541212 C45.0071583,195.563765 -14.7599696,148.214837 32.7746041,117.424176 Z" id="Path" transform="translate(139.306112, 105.184922) scale(-1, 1) rotate(-201.000000) translate(-139.306112, -105.184922) "></path>
                    <path d="M277.346566,618.061116 C247.671099,641.202979 216.861922,612.739912 216.861922,603.404603 C216.861922,594.069293 229.22302,562.277577 246.117687,566.259841 C263.012354,570.242104 257.808059,580.95557 257.808059,590.29088 C257.808059,599.62619 307.022033,594.919253 277.346566,618.061116 Z" id="Path" transform="translate(251.861922, 596.416578) rotate(130.000000) translate(-251.861922, -596.416578) "></path>
                    <path d="M221.507151,756 C209.179659,756 206,751.061626 206,741.853698 C206,732.645771 206,717.716772 222.916892,721.644696 C239.833783,725.572621 247,725.572621 247,734.780548 C247,743.988475 233.834642,756 221.507151,756 Z" id="Path"></path>
                </g>
                <path d="M761.203393,150.449746 C808.739362,119.65852 886.801093,141.846789 920.733169,100.210017 C954.665244,58.5732457 1017.13523,62.4318609 981.249047,130.977916 C945.362861,199.523971 832.04376,144.542778 802.739096,186.565328 C773.434433,228.587878 713.667425,181.240972 761.203393,150.449746 Z" id="Path" transform="translate(867.736833, 138.208279) rotate(51.000000) translate(-867.736833, -138.208279) "></path>
                <path d="M1332.90213,760.157221 C1365.03047,739.301914 1417.79039,754.330323 1440.7242,726.129184 C1463.65802,697.928045 1505.87988,700.541537 1481.62533,746.968691 C1457.37078,793.395846 1380.78131,756.156353 1360.97504,784.618785 C1341.16878,813.081217 1300.77379,781.012528 1332.90213,760.157221 Z" id="Path" transform="translate(1404.905343, 751.865912) rotate(48.000000) translate(-1404.905343, -751.865912) "></path>
                <path d="M423.466175,696.984618 C471.005048,666.186181 549.061746,688.364515 582.998543,646.722081 C616.935341,605.079648 679.403174,608.929948 643.508691,677.482634 C607.614209,746.035319 494.305483,691.067951 464.995924,733.09555 C435.686366,775.123149 375.927302,727.783054 423.466175,696.984618 Z" id="Path" transform="translate(529.998725, 684.727974) scale(-1, 1) rotate(-115.000000) translate(-529.998725, -684.727974) "></path>
                <path d="M1508.59078,212.223103 C1479.26702,230.463298 1457.93294,167.887494 1441.16772,218.858208 C1424.40251,269.828923 1359.13461,274.209849 1388.48872,204.391883 C1417.84284,134.573918 1482.13735,126.441117 1500.9124,136.572306 C1519.68746,146.703495 1537.91453,193.982908 1508.59078,212.223103 Z" id="Path"></path>
                <path d="M1208.03567,766.978314 C1178.73116,785.245744 1157.41863,722.588642 1140.66037,773.628976 C1123.90211,824.66931 1058.68066,829.062573 1088.02065,759.14861 C1117.36065,689.234647 1181.60979,681.084603 1200.37035,691.227429 C1219.13091,701.370255 1237.34018,748.710883 1208.03567,766.978314 Z" id="Path" transform="translate(1151.985522, 749.738969) rotate(7.000000) translate(-1151.985522, -749.738969) "></path>
                <path d="M1350.03567,454.978314 C1320.73116,473.245744 1299.41863,410.588642 1282.66037,461.628976 C1265.90211,512.66931 1200.68066,517.062573 1230.02065,447.14861 C1259.36065,377.234647 1323.60979,369.084603 1342.37035,379.227429 C1361.13091,389.370255 1379.34018,436.710883 1350.03567,454.978314 Z" id="Path" transform="translate(1293.985522, 437.738969) rotate(-123.000000) translate(-1293.985522, -437.738969) "></path>
                <path d="M437.507151,230 C425.179659,230 422,225.061626 422,215.853698 C422,206.645771 422,191.716772 438.916892,195.644696 C455.833783,199.572621 463,199.572621 463,208.780548 C463,217.988475 449.834642,230 437.507151,230 Z" id="Path"></path>
                <path d="M1158.50715,213 C1146.17966,213 1143,208.061626 1143,198.853698 C1143,189.645771 1143,174.716772 1159.91689,178.644696 C1176.83378,182.572621 1184,182.572621 1184,191.780548 C1184,200.988475 1170.83464,213 1158.50715,213 Z" id="Path"></path>
                <path d="M991.507151,793 C979.179659,793 976,788.061626 976,778.853698 C976,769.645771 976,754.716772 992.916892,758.644696 C1009.83378,762.572621 1017,762.572621 1017,771.780548 C1017,780.988475 1003.83464,793 991.507151,793 Z" id="Path"></path>
            </g>
        </g>
    </g>
</svg>