<?xml version="1.0" encoding="UTF-8"?>
<svg width="1284px" height="731px" viewBox="0 0 1284 731" version="1.1" xmlns="http://www.w3.org/2000/svg" xmlns:xlink="http://www.w3.org/1999/xlink">
    <!-- Generator: Sketch 54.1 (76490) - https://sketchapp.com -->
    <title>Big wiggles</title>
    <desc>Created with Sketch.</desc>
    <g id="Under-Construction-Page" stroke="none" stroke-width="1" fill="none" fill-rule="evenodd">
        <g id="3" transform="translate(0.000000, -99.000000)" fill="#FFFFFF">
            <g id="Big-wiggles" transform="translate(673.500000, 447.500000) rotate(-180.000000) translate(-673.500000, -447.500000) translate(-36.000000, 39.000000)">
                <g id="Group" transform="translate(0.025418, 0.652165)">
                    <path d="M238.398027,111.326148 C209.093513,129.593579 187.78099,66.9364772 171.022731,117.976811 C154.264472,169.017145 89.043013,173.410408 118.383011,103.496445 C147.723009,33.5824815 211.972151,25.4324373 230.732711,35.5752635 C249.49327,45.7180896 267.702541,93.0587178 238.398027,111.326148 Z" id="Path" transform="translate(182.347879, 94.086803) rotate(-123.000000) translate(-182.347879, -94.086803) "></path>
                    <path d="M33.1369613,343.77201 C80.671535,312.981349 158.732559,335.171656 192.663211,293.534988 C226.593862,251.898321 289.062982,255.758355 253.178836,324.304674 C217.29469,392.850992 103.97612,337.866494 74.6728175,379.889047 C45.3695154,421.9116 -14.3976125,374.562671 33.1369613,343.77201 Z" id="Path" transform="translate(139.668470, 331.532757) scale(-1, 1) rotate(-201.000000) translate(-139.668470, -331.532757) "></path>
                    <path d="M133.708923,580.408951 C104.033456,603.550814 73.224279,575.087747 73.224279,565.752437 C73.224279,556.417128 85.5853769,524.625412 102.480044,528.607675 C119.374711,532.589939 114.170416,543.303405 114.170416,552.638715 C114.170416,561.974024 163.38439,557.267087 133.708923,580.408951 Z" id="Path" transform="translate(108.224279, 558.764412) rotate(130.000000) translate(-108.224279, -558.764412) "></path>
                    <path d="M168.869508,731.347835 C156.542016,731.347835 153.362357,726.40946 153.362357,717.201533 C153.362357,707.993606 153.362357,693.064607 170.279249,696.992531 C187.19614,700.920455 194.362357,700.920455 194.362357,710.128382 C194.362357,719.336309 181.197,731.347835 168.869508,731.347835 Z" id="Path"></path>
                </g>
                <path d="M776.774141,127.341245 C824.31011,96.5500189 902.371841,118.738288 936.303917,77.1015164 C970.235992,35.464745 1032.70598,39.3233603 996.819795,107.869415 C960.933609,176.41547 847.614508,121.434277 818.309844,163.456827 C789.00518,205.479377 729.238172,158.132472 776.774141,127.341245 Z" id="Path" transform="translate(883.307581, 115.099778) rotate(-14.000000) translate(-883.307581, -115.099778) "></path>
                <path d="M1166.90213,694.157221 C1199.03047,673.301914 1251.79039,688.330323 1274.7242,660.129184 C1297.65802,631.928045 1339.87988,634.541537 1315.62533,680.968691 C1291.37078,727.395846 1214.78131,690.156353 1194.97504,718.618785 C1175.16878,747.081217 1134.77379,715.012528 1166.90213,694.157221 Z" id="Path" transform="translate(1238.905343, 685.865912) rotate(48.000000) translate(-1238.905343, -685.865912) "></path>
                <path d="M422.569145,717.671571 C470.108018,686.873134 548.164716,709.051468 582.101513,667.409035 C616.038311,625.766602 678.506144,629.616902 642.611661,698.169587 C606.717179,766.722273 493.408453,711.754905 464.098894,753.782504 C434.789335,795.810102 375.030272,748.470008 422.569145,717.671571 Z" id="Path" transform="translate(529.101695, 705.414927) scale(-1, 1) rotate(-155.000000) translate(-529.101695, -705.414927) "></path>
                <path d="M479.59078,225.223103 C450.267025,243.463298 428.932938,180.887494 412.167722,231.858208 C395.402505,282.828923 330.134607,287.209849 359.488724,217.391883 C388.84284,147.573918 453.137348,139.441117 471.912403,149.572306 C490.687457,159.703495 508.914535,206.982908 479.59078,225.223103 Z" id="Path"></path>
                <path d="M1030.03567,722.978314 C1000.73116,741.245744 979.418633,678.588642 962.660374,729.628976 C945.902115,780.66931 880.680656,785.062573 910.020654,715.14861 C939.360652,645.234647 1003.60979,637.084603 1022.37035,647.227429 C1041.13091,657.370255 1059.34018,704.710883 1030.03567,722.978314 Z" id="Path" transform="translate(973.985522, 705.738969) rotate(-123.000000) translate(-973.985522, -705.738969) "></path>
                <path d="M1384.03567,286.978314 C1354.73116,305.245744 1333.41863,242.588642 1316.66037,293.628976 C1299.90211,344.66931 1234.68066,349.062573 1264.02065,279.14861 C1293.36065,209.234647 1357.60979,201.084603 1376.37035,211.227429 C1395.13091,221.370255 1413.34018,268.710883 1384.03567,286.978314 Z" id="Path" transform="translate(1327.985522, 269.738969) rotate(-123.000000) translate(-1327.985522, -269.738969) "></path>
                <path d="M1177.50715,151.268176 C1165.17966,151.268176 1162,146.329801 1162,137.121874 C1162,127.913947 1162,112.984948 1178.91689,116.912872 C1195.83378,120.840796 1203,120.840796 1203,130.048724 C1203,139.256651 1189.83464,151.268176 1177.50715,151.268176 Z" id="Path"></path>
                <path d="M612.507151,84 C600.179659,84 597,79.0616255 597,69.8536984 C597,60.6457713 597,45.7167718 613.916892,49.6446962 C630.833783,53.5726205 638,53.5726205 638,62.7805476 C638,71.9884747 624.834642,84 612.507151,84 Z" id="Path"></path>
                <path d="M1390.50715,534 C1378.17966,534 1375,529.061626 1375,519.853698 C1375,510.645771 1375,495.716772 1391.91689,499.644696 C1408.83378,503.572621 1416,503.572621 1416,512.780548 C1416,521.988475 1402.83464,534 1390.50715,534 Z" id="Path"></path>
            </g>
        </g>
    </g>
</svg>